<svg fill="none" height="15" viewBox="0 0 14 15" width="14" xmlns="http://www.w3.org/2000/svg" xmlns:xlink="http://www.w3.org/1999/xlink"><clipPath id="a"><path d="m0 .442871h14v14h-14z"/></clipPath><g clip-path="url(#a)" stroke="#000001" stroke-linecap="round" stroke-linejoin="round"><path d="m7.00002 13.9428c-1.46476-1.6127-3.45121-2.6573-5.61-2.95-.24572-.0272-.472659-.1445-.637017-.3292-.164358-.1846-.254484-.4236-.252985-.67085v-8.05c-.000009-.14444.031272-.28717.091692-.41837.060419-.13119.148543-.24774.258308-.34163.107832-.09218.234042-.16036.370252-.200015.1362-.039655.27929-.049876.41975-.029984 2.06429.342609 3.95272 1.371379 5.36 2.919999z"/><path d="m7 13.9428c1.46476-1.6127 3.4512-2.6573 5.61-2.95.2457-.0272.4727-.1445.637-.3292.1644-.1846.2545-.4236.253-.67085v-8.05c0-.14444-.0313-.28717-.0917-.41837-.0604-.13119-.1485-.24774-.2583-.34163-.1078-.09218-.234-.16036-.3702-.200015-.1363-.039655-.2793-.049876-.4198-.029984-2.0643.342609-3.95272 1.371379-5.36 2.919999z"/></g></svg>