<svg fill="none" height="24" viewBox="0 0 24 24" width="24" xmlns="http://www.w3.org/2000/svg"><path clip-rule="evenodd" d="m15.2929 3.29289c.3905-.39052 1.0237-.39052 1.4142 0l5.6586 5.65858c.7559.75596.2205 2.04853-.8485 2.04853h-19.5172c-.55228 0-1-.4477-1-1 0-.55228.44772-1 1-1h17.5858l-4.2929-4.29289c-.3905-.39053-.3905-1.02369 0-1.41422zm-10.87869 11.70711h17.58579c.5523 0 1-.4477 1-1s-.4477-1-1-1h-19.51716c-1.06908 0-1.604485 1.2926-.84853 2.0485l5.65858 5.6586c.39053.3905 1.02369.3905 1.41422 0 .39052-.3905.39052-1.0237 0-1.4142z" fill="#0f0f0f" fill-rule="evenodd"/></svg>